<svg width="22" height="16" viewBox="0 0 22 16" fill="none" xmlns="http://www.w3.org/2000/svg">
<g clip-path="url(#clip0_21_1153)">
<g clip-path="url(#clip1_21_1153)">
<path d="M19.9048 0H2.09524C0.93807 0 0 0.955126 0 2.13333V13.8667C0 15.0449 0.93807 16 2.09524 16H19.9048C21.0619 16 22 15.0449 22 13.8667V2.13333C22 0.955126 21.0619 0 19.9048 0Z" fill="#FFDA2C"/>
<path fill-rule="evenodd" clip-rule="evenodd" d="M9.42871 7.46667H10.4763V8.53334H9.42871V7.46667ZM11.5239 7.46667H12.5716V8.53334H11.5239V7.46667Z" fill="#03BCDB"/>
<path fill-rule="evenodd" clip-rule="evenodd" d="M12.5713 7.46669H13.619V9.60002H12.5713V7.46669ZM11.5237 6.40002H12.5713V7.46669H11.5237V6.40002ZM9.42848 6.40002H10.4761V7.46669H9.42848V6.40002ZM8.38086 7.46669H9.42848V9.60002H8.38086V7.46669Z" fill="#AF010D"/>
<path fill-rule="evenodd" clip-rule="evenodd" d="M10.4766 8.53333H11.5242V9.59999H10.4766V8.53333Z" fill="#249F58"/>
<path fill-rule="evenodd" clip-rule="evenodd" d="M10.4766 6.40002H11.5242V7.46669H10.4766V6.40002Z" fill="#151515"/>
<path fill-rule="evenodd" clip-rule="evenodd" d="M11.5239 8.53333H12.5716V9.59999H11.5239V8.53333ZM9.42871 8.53333H10.4763V9.59999H9.42871V8.53333Z" fill="#D4AF2C"/>
<path fill-rule="evenodd" clip-rule="evenodd" d="M10.4766 7.46667H11.5242V8.53334H10.4766V7.46667Z" fill="#249F58"/>
<path fill-rule="evenodd" clip-rule="evenodd" d="M0 10.6666H22V16H0V10.6666Z" fill="#249F58"/>
<path fill-rule="evenodd" clip-rule="evenodd" d="M0 0H22V5.33333H0V0Z" fill="#F93939"/>
</g>
</g>
<defs>
<clipPath id="clip0_21_1153">
<rect width="22" height="16" fill="white"/>
</clipPath>
<clipPath id="clip1_21_1153">
<rect width="22" height="16" rx="2" fill="white"/>
</clipPath>
</defs>
</svg>
