<svg width="22" height="16" viewBox="0 0 22 16" fill="none" xmlns="http://www.w3.org/2000/svg">
<g clip-path="url(#clip0_21_1099)">
<g clip-path="url(#clip1_21_1099)">
<path d="M19.9048 0H2.09524C0.93807 0 0 0.955126 0 2.13333V13.8667C0 15.0449 0.93807 16 2.09524 16H19.9048C21.0619 16 22 15.0449 22 13.8667V2.13333C22 0.955126 21.0619 0 19.9048 0Z" fill="#F93939"/>
<path fill-rule="evenodd" clip-rule="evenodd" d="M11 9.33331L9.46003 10.1578L9.75336 8.41171L8.50879 7.17438L10.23 6.92158L11 5.33331L11.77 6.92265L13.4913 7.17545L12.2446 8.41278L12.5379 10.1578" fill="#FFDA2C"/>
<path fill-rule="evenodd" clip-rule="evenodd" d="M0 0H7V16H0V0Z" fill="#249F58"/>
<path fill-rule="evenodd" clip-rule="evenodd" d="M15 0H22V16H15V0Z" fill="#FFDA2C"/>
</g>
</g>
<defs>
<clipPath id="clip0_21_1099">
<rect width="22" height="16" fill="white"/>
</clipPath>
<clipPath id="clip1_21_1099">
<rect width="22" height="16" rx="2" fill="white"/>
</clipPath>
</defs>
</svg>
