<svg width="22" height="16" viewBox="0 0 22 16" fill="none" xmlns="http://www.w3.org/2000/svg">
<g clip-path="url(#clip0_21_253)">
<rect width="22" height="16" rx="2" fill="#249F58"/>
<path fill-rule="evenodd" clip-rule="evenodd" d="M2.0957 0H3.14332V16H2.0957V0ZM4.19094 0H5.23856V16H4.19094V0ZM6.28618 0H7.3338V16H6.28618V0Z" fill="#D4AF2C"/>
<path fill-rule="evenodd" clip-rule="evenodd" d="M5.23856 0L7.3338 1.6L5.23856 3.2V0ZM5.23856 3.2L7.3338 4.8L5.23856 6.4V3.2ZM5.23856 6.4L7.3338 8L5.23856 9.6V6.4ZM5.23856 9.6L7.3338 11.2L5.23856 12.8V9.6ZM5.23856 12.8L7.3338 14.4L5.23856 16V12.8ZM4.19094 0L2.0957 1.6L4.19094 3.2V0ZM4.19094 3.2L2.0957 4.8L4.19094 6.4V3.2ZM4.19094 6.4L2.0957 8L4.19094 9.6V6.4ZM4.19094 9.6L2.0957 11.2L4.19094 12.8V9.6ZM4.19094 12.8L2.0957 14.4L4.19094 16V12.8ZM4.19094 0H5.23856V2.13333H4.19094V0ZM4.19094 13.8667H5.23856V16H4.19094V13.8667ZM4.19094 5.33333H5.23856V7.46667H4.19094V5.33333ZM4.19094 3.2H5.23856V4.26667H4.19094V3.2ZM4.19094 11.7333H5.23856V12.8H4.19094V11.7333ZM4.19094 8.53333H5.23856V10.6667H4.19094V8.53333Z" fill="#AE6A3E"/>
<path fill-rule="evenodd" clip-rule="evenodd" d="M11.7712 3.21495C11.8623 3.20428 11.9545 3.20001 12.0478 3.20001C13.4935 3.20001 14.6668 4.39468 14.6668 5.86668C14.6668 7.33868 13.4935 8.53335 12.0478 8.53335C10.602 8.53335 9.42871 7.33868 9.42871 5.86668C9.42871 5.77068 9.43395 5.67788 9.44338 5.58508C9.5649 6.64535 10.4491 7.46668 11.5239 7.46668C12.6816 7.46668 13.6192 6.51201 13.6192 5.33335C13.6192 4.24001 12.8125 3.33868 11.7712 3.21495ZM10.4763 4.26668H11.5239V5.33335H10.4763V4.26668Z" fill="white"/>
<path opacity="0.5" fill-rule="evenodd" clip-rule="evenodd" d="M8.38086 4.26666H9.42848V5.33333H8.38086V4.26666ZM10.4761 2.13333H11.5237V3.2H10.4761V2.13333Z" fill="white"/>
</g>
<defs>
<clipPath id="clip0_21_253">
<rect width="22" height="16" fill="white"/>
</clipPath>
</defs>
</svg>
